<svg width="138" height="64" viewBox="0 0 138 64" fill="none" xmlns="http://www.w3.org/2000/svg">
<path d="M0 62.0005H33.9315V53.133H23.0734V3.81934H12.8487V4.63369C12.8487 7.71014 11.1295 9.15788 5.0671 9.15788H0V17.8443H10.8581V53.133H0V62.0005Z" fill="#20A67D"/>
<path d="M60.1873 63.3577C74.7552 63.3577 83.4417 52.3187 83.4417 32.9551C83.4417 13.7726 74.8457 2.46208 60.1873 2.46208C45.6194 2.46208 36.933 13.5011 36.933 32.9551C36.933 52.0472 45.5289 63.3577 60.1873 63.3577ZM60.1873 53.5855C52.8581 53.5855 48.7864 46.0753 48.7864 32.9551C48.7864 19.5635 52.7677 12.2343 60.1873 12.2343C67.426 12.2343 71.4978 19.654 71.4978 32.9551C71.4978 46.2563 67.5165 53.5855 60.1873 53.5855Z" fill="#20A67D"/>
<path d="M123.542 62.0005H137.657L116.122 30.0597L136.119 0.471436H123.361L112.684 15.7632L109.879 20.5589L107.074 15.7632L96.2155 0.471436H82.1L102.187 30.2406L80.5618 62.0005H93.4105L105.897 44.0847L108.521 39.7414L111.055 44.0847L123.542 62.0005Z" fill="#20A67D"/>
</svg>
