<svg width="20" height="10" viewBox="0 0 20 10" fill="none" xmlns="http://www.w3.org/2000/svg">
<path d="M6.04894 4.27457C6.43458 5.7138 5.58151 7.19286 4.14355 7.57816C2.7056 7.96346 1.22728 7.10909 0.841644 5.66986C0.456005 4.23064 1.30908 2.75157 2.74703 2.36628C4.18499 1.98098 5.6633 2.83535 6.04894 4.27457Z" fill="#FFBE2E"/>
<path d="M6.19739 7.50664L4.56147 1.40129L10.5867 3.05868L6.19739 7.50664Z" fill="#FFBE2E"/>
<path d="M13.4835 5.59091C13.0979 4.15168 13.951 2.67262 15.3889 2.28732C16.8269 1.90202 18.3052 2.75639 18.6908 4.19561C19.0765 5.63484 18.2234 7.1139 16.7854 7.4992C15.3475 7.8845 13.8692 7.03013 13.4835 5.59091Z" fill="#50589F"/>
<path d="M13.3351 2.35883L14.971 8.46419L8.94574 6.8068L13.3351 2.35883Z" fill="#50589F"/>
</svg>
