<svg width="18" height="19" viewBox="0 0 18 19" fill="none" xmlns="http://www.w3.org/2000/svg">
<path fill-rule="evenodd" clip-rule="evenodd" d="M9.06071 12.0871V12.0871C9.74665 11.1703 10.5318 10.3321 11.4019 9.58781L11.4164 9.57545C11.4944 9.50872 11.5393 9.4112 11.5393 9.30855C11.5393 9.20589 11.4944 9.10838 11.4164 9.04164L11.4019 9.02928C10.5318 8.28499 9.74665 7.44681 9.06071 6.53V6.53C8.99555 6.44289 8.89314 6.3916 8.78436 6.3916C8.67558 6.3916 8.57317 6.44289 8.50801 6.53V6.53C7.82207 7.44683 7.03689 8.28503 6.16678 9.02933L6.15233 9.04169C6.07433 9.10843 6.02942 9.20594 6.02942 9.3086C6.02942 9.41125 6.07433 9.50877 6.15233 9.5755L6.16678 9.58786C7.03689 10.3322 7.82207 11.1704 8.50801 12.0872V12.0872C8.57317 12.1743 8.67559 12.2256 8.78437 12.2256C8.89315 12.2256 8.99556 12.1743 9.06071 12.0871V12.0871Z" stroke="#FFBE2E" stroke-width="1.09341" stroke-linecap="round" stroke-linejoin="round"/>
<path d="M13.4252 4.66817C15.3023 6.54523 15.8638 9.36818 14.848 11.8207C13.8321 14.2732 11.4389 15.8723 8.78434 15.8723C6.12978 15.8723 3.73659 14.2732 2.72073 11.8207C1.70487 9.36818 2.26639 6.54523 4.14346 4.66817C6.70655 2.10508 10.8621 2.10508 13.4252 4.66817" stroke="#FFBE2E" stroke-width="1.09341" stroke-linecap="round" stroke-linejoin="round"/>
<path d="M13.4252 4.66817C15.3023 6.54523 15.8638 9.36818 14.848 11.8207C13.8321 14.2732 11.4389 15.8723 8.78434 15.8723C6.12978 15.8723 3.73659 14.2732 2.72073 11.8207C1.70487 9.36818 2.26639 6.54523 4.14346 4.66817C6.70655 2.10508 10.8621 2.10508 13.4252 4.66817" stroke="#FFBE2E" stroke-width="1.09341" stroke-linecap="round" stroke-linejoin="round"/>
</svg>
