<svg width="22" height="21" viewBox="0 0 22 21" fill="none" xmlns="http://www.w3.org/2000/svg">
<g clip-path="url(#clip0_1_648)">
<path d="M12.6056 5.40663V7.10692H16.8564V16.4585H7.50477V12.2078H5.80448V17.3087C5.80448 17.5341 5.89405 17.7504 6.05348 17.9098C6.21291 18.0692 6.42915 18.1588 6.65462 18.1588H17.7065C17.932 18.1588 18.1482 18.0692 18.3076 17.9098C18.4671 17.7504 18.5566 17.5341 18.5566 17.3087V6.25678C18.5566 6.03131 18.4671 5.81507 18.3076 5.65563C18.1482 5.4962 17.932 5.40663 17.7065 5.40663H12.6056ZM3.25405 2.8562V9.65735H4.95434V5.75774L11.5795 12.3838L12.7816 11.1817L6.15729 4.55649H10.0552V2.8562H3.25405Z" fill="#1D1D28"/>
</g>
<defs>
<clipPath id="clip0_1_648">
<rect width="20.4035" height="20.4035" fill="white" transform="matrix(-1 0 0 1 21.1064 0.305908)"/>
</clipPath>
</defs>
</svg>
