<svg width="13" height="13" viewBox="0 0 13 13" fill="none" xmlns="http://www.w3.org/2000/svg">
<path d="M5.25677 3.42186C5.25664 4.27831 5.51161 5.11539 5.98917 5.82633C6.46672 6.53728 7.14522 7.08988 7.93811 7.41364C8.731 7.73741 9.60236 7.81767 10.4411 7.64419C11.2798 7.47071 12.0478 7.05136 12.6472 6.43961V6.50119C12.6472 9.90262 9.88993 12.6599 6.4885 12.6599C3.08707 12.6599 0.329834 9.90262 0.329834 6.50119C0.329834 3.09976 3.08707 0.342529 6.4885 0.342529H6.55009C6.13994 0.743535 5.81421 1.22258 5.59209 1.75144C5.36997 2.28029 5.25596 2.84826 5.25677 3.42186ZM1.56157 6.50119C1.56112 7.6005 1.92833 8.66838 2.60478 9.53493C3.28122 10.4015 4.22804 11.0169 5.29459 11.2833C6.36113 11.5497 7.48613 11.4517 8.49058 11.005C9.49504 10.5583 10.3212 9.7885 10.8377 8.81808C9.91853 9.03464 8.95922 9.01275 8.05084 8.75448C7.14246 8.4962 6.31513 8.01012 5.64735 7.34234C4.97957 6.67456 4.49349 5.84723 4.23522 4.93885C3.97694 4.03047 3.95505 3.07116 4.17161 2.15194C3.38304 2.57205 2.72357 3.19871 2.26381 3.96484C1.80405 4.73096 1.56131 5.6077 1.56157 6.50119Z" fill="#181818"/>
</svg>
