<svg width="15" height="13" viewBox="0 0 15 13" fill="none" xmlns="http://www.w3.org/2000/svg">
<path d="M14.448 4.56679L10.2069 3.97513L8.31105 0.285659C8.25927 0.184644 8.17408 0.102869 8.06885 0.053163C7.80493 -0.0719039 7.48421 0.0323185 7.35225 0.285659L5.45637 3.97513L1.21526 4.56679C1.09833 4.58283 0.991428 4.63574 0.909579 4.71591C0.810629 4.81354 0.756102 4.94488 0.757982 5.08108C0.759861 5.21728 0.817992 5.34719 0.919602 5.44226L3.9881 8.31399L3.26315 12.369C3.24615 12.4634 3.25703 12.5604 3.29454 12.6491C3.33206 12.7378 3.39471 12.8146 3.4754 12.8709C3.5561 12.9271 3.65159 12.9606 3.75107 12.9674C3.85055 12.9742 3.95002 12.9541 4.03821 12.9094L7.83165 10.9949L11.6251 12.9094C11.7287 12.9623 11.8489 12.9799 11.9642 12.9607C12.2548 12.9126 12.4503 12.648 12.4002 12.369L11.6752 8.31399L14.7437 5.44226C14.8272 5.36369 14.8823 5.26108 14.899 5.14884C14.9441 4.86824 14.7404 4.60848 14.448 4.56679Z" fill="#FFBE2E"/>
</svg>
