<svg width="41" height="41" viewBox="0 0 41 41" fill="none" xmlns="http://www.w3.org/2000/svg">
<path d="M20.5128 40.9114C9.244 40.9114 0.109375 31.7768 0.109375 20.5079C0.109375 9.23912 9.244 0.104492 20.5128 0.104492C31.7817 0.104492 40.9163 9.23912 40.9163 20.5079C40.9163 31.7768 31.7817 40.9114 20.5128 40.9114ZM20.5128 36.8307C24.8419 36.8307 28.9937 35.111 32.0548 32.0499C35.1159 28.9888 36.8356 24.837 36.8356 20.5079C36.8356 16.1789 35.1159 12.0271 32.0548 8.96601C28.9937 5.9049 24.8419 4.18518 20.5128 4.18518C16.1838 4.18518 12.032 5.9049 8.97089 8.96601C5.90978 12.0271 4.19007 16.1789 4.19007 20.5079C4.19007 24.837 5.90978 28.9888 8.97089 32.0499C12.032 35.111 16.1838 36.8307 20.5128 36.8307Z" fill="#525AA0"/>
</svg>
