<svg width="13" height="13" viewBox="0 0 13 13" fill="none" xmlns="http://www.w3.org/2000/svg">
<path d="M2.17743 10.3905H3.40917V11.6222H10.7996V1.76835H3.40917V3.00009H2.17743V1.15249C2.17743 0.98915 2.24232 0.832502 2.35782 0.717004C2.47331 0.601507 2.62996 0.536621 2.7933 0.536621H11.4154C11.5788 0.536621 11.7354 0.601507 11.8509 0.717004C11.9664 0.832502 12.0313 0.98915 12.0313 1.15249V12.2381C12.0313 12.4014 11.9664 12.5581 11.8509 12.6736C11.7354 12.7891 11.5788 12.8539 11.4154 12.8539H2.7933C2.62996 12.8539 2.47331 12.7891 2.35782 12.6736C2.24232 12.5581 2.17743 12.4014 2.17743 12.2381V10.3905ZM3.40917 6.07942H7.72023V7.31115H3.40917V9.15875L0.329834 6.69529L3.40917 4.23182V6.07942Z" fill="black"/>
</svg>
