<svg width="11" height="21" viewBox="0 0 11 21" fill="none" xmlns="http://www.w3.org/2000/svg">
<path d="M4.90939 11.8889V19.1769H0.564453C0.564453 17.244 1.02222 15.3903 1.83706 14.0235C2.65189 12.6567 3.75704 11.8889 4.90939 11.8889ZM8.16809 18.7214L6.57187 20.1289L6.87656 17.1481L5.58557 15.0364L7.37025 14.6009L8.16809 11.8889L8.96647 14.6009L10.7506 15.0364L9.45962 17.1481L9.76377 20.1289L8.16809 18.7214ZM4.90939 10.9779C3.10896 10.9779 1.65069 8.53186 1.65069 5.5119C1.65069 2.49193 3.10896 0.0458984 4.90939 0.0458984C6.70982 0.0458984 8.16809 2.49193 8.16809 5.5119C8.16809 8.53186 6.70982 10.9779 4.90939 10.9779Z" fill="#A285D0"/>
</svg>
