<svg width="124" height="26" viewBox="0 0 124 26" fill="none" xmlns="http://www.w3.org/2000/svg">
<path d="M0 0.491472H5.09304V22.3511H14.3595V26.0002H0V0.491472Z" fill="white"/>
<path d="M18.8248 0.491472H34.2454V4.10551H23.8825V22.3862H34.8113V26.0002H18.8248V0.491472ZM25.2265 14.3862C25.3444 14.0119 25.4976 13.6143 25.6863 13.1932C25.8749 12.7722 26.1107 12.3862 26.3936 12.0353C26.6766 11.6845 27.0067 11.4038 27.3839 11.1932C27.7848 10.9593 28.2446 10.8424 28.7633 10.8424H33.0429V14.3862H25.2265Z" fill="white"/>
<path d="M39.6175 0.491472H55.0381V4.10551H44.6752V22.3862H55.604V26.0002H39.6175V0.491472ZM46.0192 14.3862C46.1371 14.0119 46.2903 13.6143 46.479 13.1932C46.6676 12.7722 46.9034 12.3862 47.1863 12.0353C47.4693 11.6845 47.7994 11.4038 48.1767 11.1932C48.5775 10.9593 49.0373 10.8424 49.556 10.8424H53.8356V14.3862H46.0192Z" fill="white"/>
<path d="M60.3749 0.491472H65.4679V22.3511H74.7344V26.0002H60.3749V0.491472Z" fill="white"/>
<path d="M84.1866 20.4213L82.3121 26.0002H77.3251L86.5563 0.491472H91.5078L100.739 26.0002H95.5045L89.1382 7.01779L88.8552 5.71954L88.5369 7.08796L85.5306 16.1757L85.1062 16.8774L85.6367 16.8073H88.3247C88.8434 16.8073 89.2914 16.9242 89.6687 17.1581C90.046 17.3921 90.3761 17.6845 90.659 18.0353C90.9419 18.3862 91.1777 18.7839 91.3664 19.2283C91.5786 19.6494 91.7436 20.047 91.8615 20.4213H84.1866Z" fill="white"/>
<path d="M122.904 7.82481C122.904 9.22832 122.585 10.4447 121.949 11.4739C121.312 12.5032 120.463 13.3336 119.402 13.9652L118.412 14.3511C118.506 14.3979 118.636 14.4564 118.801 14.5266C118.966 14.5967 119.096 14.6669 119.19 14.7371C119.897 15.3453 120.451 16.0704 120.852 16.9125C121.253 17.7312 121.595 18.6318 121.878 19.6143C122.184 20.5733 122.479 21.6026 122.762 22.702C123.069 23.778 123.481 24.8774 124 26.0002H118.801C118.376 25.1114 118.035 24.164 117.775 23.1581C117.539 22.1289 117.28 21.1347 116.997 20.1757C116.714 19.2166 116.384 18.3277 116.007 17.509C115.63 16.6903 115.111 16.0236 114.451 15.509C113.955 15.5558 113.425 15.5675 112.859 15.5441C112.317 15.4973 111.739 15.3804 111.126 15.1932C111.267 14.8657 111.421 14.5266 111.586 14.1757C111.774 13.8014 111.987 13.4622 112.222 13.1581C112.482 12.8307 112.765 12.5616 113.071 12.3511C113.401 12.1406 113.767 12.0119 114.168 11.9652C114.663 11.9184 115.123 11.7897 115.547 11.5792C115.971 11.3453 116.337 11.0529 116.643 10.702C116.974 10.3277 117.233 9.89498 117.422 9.40375C117.61 8.91253 117.704 8.38621 117.704 7.82481C117.704 7.21662 117.575 6.65522 117.315 6.1406C117.056 5.62598 116.702 5.18153 116.254 4.80726C115.83 4.43299 115.311 4.1406 114.698 3.93007C114.109 3.71954 113.472 3.61428 112.788 3.61428C112.458 3.61428 112.175 3.62598 111.939 3.64937C111.727 3.64937 111.515 3.66106 111.303 3.68446C111.091 3.68446 110.867 3.70785 110.631 3.75463C110.395 3.77802 110.124 3.80141 109.817 3.82481V26.0002H104.724V0.807262C105.667 0.64352 106.504 0.514865 107.235 0.421298C107.966 0.304339 108.627 0.222467 109.216 0.175683C109.829 0.105508 110.419 0.058725 110.984 0.0353335C111.55 0.0119406 112.152 0.000244141 112.788 0.000244141C114.179 0.000244141 115.488 0.175683 116.714 0.526562C117.94 0.877438 119.013 1.39206 119.933 2.07042C120.852 2.72539 121.571 3.5441 122.09 4.52656C122.632 5.48562 122.904 6.58504 122.904 7.82481Z" fill="white"/>
</svg>
