<svg width="70" height="14" viewBox="0 0 70 14" fill="none" xmlns="http://www.w3.org/2000/svg">
<path d="M0 0.264752H2.8751V12.0353H8.10619V14.0002H0V0.264752Z" fill="#1E1515"/>
<path d="M10.6269 0.264752H19.3321V2.21077H13.482V12.0542H19.6515V14.0002H10.6269V0.264752ZM14.2407 7.74653C14.3073 7.545 14.3938 7.33088 14.5003 7.10416C14.6068 6.87744 14.7399 6.66961 14.8996 6.48068C15.0594 6.29174 15.2457 6.1406 15.4587 6.02724C15.685 5.90128 15.9445 5.8383 16.2373 5.8383H18.6532V7.74653H14.2407Z" fill="#1E1515"/>
<path d="M22.3647 0.264752H31.0699V2.21077H25.2199V12.0542H31.3894V14.0002H22.3647V0.264752ZM25.9786 7.74653C26.0451 7.545 26.1316 7.33088 26.2381 7.10416C26.3446 6.87744 26.4777 6.66961 26.6374 6.48068C26.7972 6.29174 26.9835 6.1406 27.1965 6.02724C27.4228 5.90128 27.6823 5.8383 27.9752 5.8383H30.3911V7.74653H25.9786Z" fill="#1E1515"/>
<path d="M34.0826 0.264752H36.9577V12.0353H42.1888V14.0002H34.0826V0.264752Z" fill="#1E1515"/>
<path d="M47.5247 10.9962L46.4665 14.0002H43.6513L48.8624 0.264752H51.6576L56.8688 14.0002H53.9138L50.3199 3.77892L50.1602 3.07987L49.9805 3.81671L48.2834 8.7101L48.0438 9.08796L48.3433 9.05018H49.8607C50.1535 9.05018 50.4064 9.11316 50.6194 9.23911C50.8324 9.36507 51.0187 9.52251 51.1785 9.71145C51.3382 9.90038 51.4713 10.1145 51.5778 10.3538C51.6976 10.5805 51.7908 10.7947 51.8573 10.9962H47.5247Z" fill="#1E1515"/>
<path d="M69.3811 4.21347C69.3811 4.96921 69.2014 5.62418 68.842 6.17838C68.4826 6.73259 68.0034 7.17973 67.4044 7.51981L66.8454 7.72764C66.8986 7.75283 66.9718 7.78432 67.065 7.82211C67.1582 7.85989 67.2314 7.89768 67.2846 7.93547C67.6839 8.26295 67.9967 8.65342 68.223 9.10686C68.4493 9.5477 68.6423 10.0326 68.802 10.5616C68.9751 11.0781 69.1415 11.6323 69.3012 12.2243C69.4742 12.8037 69.7072 13.3957 70 14.0002H67.065C66.8254 13.5216 66.6324 13.0115 66.486 12.4699C66.3529 11.9157 66.2065 11.3804 66.0467 10.8639C65.887 10.3475 65.7007 9.86889 65.4877 9.42805C65.2747 8.9872 64.9819 8.62823 64.6092 8.35112C64.3297 8.37631 64.0302 8.38261 63.7107 8.37002C63.4046 8.34482 63.0785 8.28185 62.7324 8.18108C62.8122 8.00474 62.8988 7.82211 62.9919 7.63317C63.0984 7.43164 63.2182 7.24901 63.3513 7.08527C63.4977 6.90893 63.6575 6.76408 63.8305 6.65072C64.0169 6.53736 64.2232 6.46808 64.4495 6.44289C64.729 6.4177 64.9885 6.34842 65.2281 6.23506C65.4677 6.10911 65.674 5.95166 65.8471 5.76273C66.0334 5.5612 66.1798 5.32818 66.2863 5.06367C66.3928 4.79917 66.4461 4.51576 66.4461 4.21347C66.4461 3.88598 66.3728 3.58369 66.2264 3.30659C66.08 3.02948 65.8804 2.79017 65.6274 2.58864C65.3879 2.38711 65.095 2.22966 64.7489 2.1163C64.4162 2.00294 64.0568 1.94626 63.6708 1.94626C63.4844 1.94626 63.3247 1.95256 63.1916 1.96516C63.0718 1.96516 62.952 1.97145 62.8322 1.98405C62.7124 1.98405 62.586 1.99665 62.4529 2.02184C62.3197 2.03443 62.1667 2.04703 61.9936 2.05962V14.0002H59.1185V0.434792C59.651 0.346623 60.1235 0.277348 60.5361 0.226965C60.9487 0.163987 61.3214 0.119903 61.6542 0.094711C62.0003 0.0569247 62.3331 0.0317338 62.6525 0.0191384C62.972 0.00654223 63.3114 0.000244141 63.6708 0.000244141C64.4561 0.000244141 65.1948 0.0947114 65.887 0.283646C66.5792 0.47258 67.1848 0.749682 67.7039 1.11495C68.223 1.46763 68.629 1.90848 68.9218 2.43749C69.228 2.95391 69.3811 3.5459 69.3811 4.21347Z" fill="#1E1515"/>
</svg>
