<svg width="11" height="21" viewBox="0 0 11 21" fill="none" xmlns="http://www.w3.org/2000/svg">
<path d="M4.90939 12.1252V19.4132H0.564453C0.564453 17.4803 1.02222 15.6266 1.83706 14.2598C2.65189 12.8931 3.75704 12.1252 4.90939 12.1252ZM8.16809 18.9577L6.57187 20.3652L6.87656 17.3844L5.58557 15.2727L7.37025 14.8373L8.16809 12.1252L8.96647 14.8373L10.7506 15.2727L9.45962 17.3844L9.76377 20.3652L8.16809 18.9577ZM4.90939 11.2142C3.10896 11.2142 1.65069 8.76819 1.65069 5.74823C1.65069 2.72826 3.10896 0.282227 4.90939 0.282227C6.70982 0.282227 8.16809 2.72826 8.16809 5.74823C8.16809 8.76819 6.70982 11.2142 4.90939 11.2142Z" fill="#A285D0"/>
</svg>
