<svg width="31" height="31" viewBox="0 0 31 31" fill="none" xmlns="http://www.w3.org/2000/svg">
<path d="M15.6116 30.1129C7.44817 30.1129 0.830811 23.4955 0.830811 15.3321C0.830811 7.16863 7.44817 0.55127 15.6116 0.55127C23.775 0.55127 30.3924 7.16863 30.3924 15.3321C30.3924 23.4955 23.775 30.1129 15.6116 30.1129ZM15.6116 27.1567C18.7477 27.1567 21.7553 25.9109 23.9729 23.6933C26.1904 21.4758 27.4362 18.4682 27.4362 15.3321C27.4362 12.196 26.1904 9.18833 23.9729 6.97078C21.7553 4.75323 18.7477 3.50743 15.6116 3.50743C12.4755 3.50743 9.46787 4.75323 7.25033 6.97078C5.03278 9.18833 3.78697 12.196 3.78697 15.3321C3.78697 18.4682 5.03278 21.4758 7.25033 23.6933C9.46787 25.9109 12.4755 27.1567 15.6116 27.1567Z" fill="#525AA0"/>
</svg>
