<svg width="11" height="24" viewBox="0 0 11 24" fill="none" xmlns="http://www.w3.org/2000/svg">
<path d="M5.65753 6.0016C7.0083 6.0016 8.30375 6.94199 9.25888 8.6159C10.214 10.2898 10.7506 12.5601 10.7506 14.9274C10.7506 17.2946 10.214 19.5649 9.25888 21.2389C8.30375 22.9128 7.0083 23.8532 5.65753 23.8532C4.30676 23.8532 3.01132 22.9128 2.05618 21.2389C1.10104 19.5649 0.564453 17.2946 0.564453 14.9274C0.564453 12.5601 1.10104 10.2898 2.05618 8.6159C3.01132 6.94199 4.30676 6.0016 5.65753 6.0016ZM5.65753 9.90663L4.81526 12.8968L2.93273 13.3765L4.29513 15.7028L3.97363 18.9897L5.65753 17.4378L7.34143 18.9886L7.01993 15.7028L8.38233 13.3754L6.4998 12.8956L5.65753 9.90663ZM6.29417 0.421875L9.47734 0.422991V3.77016L8.60961 5.03985C7.88954 4.37776 7.10337 3.96522 6.29417 3.82483V0.422991V0.421875ZM5.0209 0.421875V3.82483C4.21195 3.96501 3.42601 4.37717 2.70609 5.03873L1.83772 3.77016V0.422991L5.0209 0.421875Z" fill="#A285D0"/>
</svg>
